<svg width="32" height="32" viewBox="0 0 32 32" fill="none" xmlns="http://www.w3.org/2000/svg">
  <rect width="32" height="32" rx="16" fill="#111827"/>
  <path d="M9 18c-2.21 0-4 1.79-4 4 0 1.75 1.12 3.22 2.67 3.77V28h2.66v-2.89C11.88 24.56 13 23.09 13 21.34c0-2.21-1.79-4-4-4zm0 5.33c-.73 0-1.33-.6-1.33-1.33s.6-1.33 1.33-1.33 1.33.6 1.33 1.33-.6 1.33-1.33 1.33zM18.33 6c0-3.68-2.99-6.67-6.67-6.67S5 2.32 5 6c0 2.19 1.07 4.12 2.71 5.33l1.89-1.89C8.79 8.97 8 7.88 8 6c0-2.21 1.79-4 4-4s4 1.79 4 4-1.79 4-4 4c-.47 0-.92-.09-1.33-.27L9.33 11.07c.41.17.87.27 1.33.27.24 0 .47-.03.71-.07L20 4.63C18.71 2.76 15.68 0 12 0 7.58 0 4 3.58 4 8c0 3 1.65 5.57 4.08 6.92L10.67 17.51C12.33 16.63 13.33 15.09 13.33 13.33h10.67c1.47 0 2.67-1.2 2.67-2.67s-1.2-2.67-2.67-2.67H22z" fill="#EAB308"/>
</svg>